<?xml version="1.0" encoding="UTF-8" standalone="no"?>
<svg
   xmlns:dc="http://purl.org/dc/elements/1.1/"
   xmlns:cc="http://creativecommons.org/ns#"
   xmlns:rdf="http://www.w3.org/1999/02/22-rdf-syntax-ns#"
   xmlns:svg="http://www.w3.org/2000/svg"
   xmlns="http://www.w3.org/2000/svg"
   xmlns:sodipodi="http://sodipodi.sourceforge.net/DTD/sodipodi-0.dtd"
   xmlns:inkscape="http://www.inkscape.org/namespaces/inkscape"
   version="1.1"
   id="Capa_1"
   x="0px"
   y="0px"
   width="533.333px"
   height="533.333px"
   viewBox="0 0 533.333 533.333"
   style="enable-background:new 0 0 533.333 533.333;"
   xml:space="preserve"
   sodipodi:docname="pdf.svg"
   inkscape:version="1.0.2 (1.0.2+r75+1)"><metadata
   id="metadata41"><rdf:RDF><cc:Work
       rdf:about=""><dc:format>image/svg+xml</dc:format><dc:type
         rdf:resource="http://purl.org/dc/dcmitype/StillImage" /></cc:Work></rdf:RDF></metadata><defs
   id="defs39" /><sodipodi:namedview
   pagecolor="#ffffff"
   bordercolor="#666666"
   borderopacity="1"
   objecttolerance="10"
   gridtolerance="10"
   guidetolerance="10"
   inkscape:pageopacity="0"
   inkscape:pageshadow="2"
   inkscape:window-width="1896"
   inkscape:window-height="1031"
   id="namedview37"
   showgrid="false"
   inkscape:zoom="1.1707044"
   inkscape:cx="209.8904"
   inkscape:cy="319.98674"
   inkscape:window-x="9"
   inkscape:window-y="34"
   inkscape:window-maximized="0"
   inkscape:current-layer="g4" />
<g
   id="g4">
	<path
   d="M 470.538,103.87 396.13,29.463 C 379.925,13.258 347.917,0 325,0 H 74.999997 c -22.917,0 -41.667,18.75 -41.667,41.667 v 450 c 0,22.916 18.75,41.666 41.667,41.666 H 458.333 c 22.916,0 41.666,-18.75 41.666,-41.666 V 175 C 500,152.083 486.742,120.074 470.538,103.87 Z"
   id="path2-3"
   sodipodi:nodetypes="ccssssssscc"
   style="fill:#ffffff" /><path
   d="m 438.548,307.021 c -7.108,-7.003 -22.872,-10.712 -46.86,-11.027 -16.238,-0.179 -35.782,1.251 -56.339,4.129 -9.205,-5.311 -18.691,-11.091 -26.139,-18.051 -20.033,-18.707 -36.755,-44.673 -47.175,-73.226 0.679,-2.667 1.257,-5.011 1.795,-7.403 0,0 11.284,-64.093 8.297,-85.763 -0.411,-2.972 -0.664,-3.834 -1.463,-6.144 l -0.98,-2.518 c -3.069,-7.079 -9.087,-14.58 -18.522,-14.171 l -5.533,-0.176 -0.152,-0.003 c -10.521,0 -19.096,5.381 -21.347,13.424 -6.842,25.226 0.218,62.964 13.012,111.842 l -3.275,7.961 c -9.161,22.332 -20.641,44.823 -30.77,64.665 l -1.317,2.581 c -10.656,20.854 -20.325,38.557 -29.09,53.554 l -9.05,4.785 c -0.659,0.348 -16.169,8.551 -19.807,10.752 -30.862,18.427 -51.313,39.346 -54.706,55.946 -1.08,5.297 -0.276,12.075 5.215,15.214 l 8.753,4.405 c 3.797,1.902 7.801,2.866 11.903,2.866 21.981,0 47.5,-27.382 82.654,-88.732 40.588,-13.214 86.799,-24.197 127.299,-30.255 30.864,17.379 68.824,29.449 92.783,29.449 4.254,0 7.921,-0.406 10.901,-1.194 4.595,-1.217 8.468,-3.838 10.829,-7.394 4.648,-6.995 5.591,-16.631 4.329,-26.497 -0.376,-2.927 -2.715,-6.547 -5.245,-9.019 z M 110.233,423.983 c 4.008,-10.96 19.875,-32.627 43.335,-51.852 1.475,-1.196 5.108,-4.601 8.435,-7.762 -24.533,39.128 -40.962,54.723 -51.77,59.614 z m 138.952,-319.98 c 7.066,0 11.085,17.81 11.419,34.507 0.333,16.698 -3.572,28.417 -8.416,37.088 -4.012,-12.838 -5.951,-33.073 -5.951,-46.304 0,0 -0.295,-25.291 2.948,-25.291 z m -41.45,228.025 c 4.922,-8.811 10.043,-18.103 15.276,-27.957 12.756,-24.123 20.812,-42.999 26.812,-58.514 11.933,21.71 26.794,40.167 44.264,54.955 2.179,1.844 4.488,3.698 6.913,5.547 -35.526,7.029 -66.231,15.578 -93.265,25.969 z m 223.987,-2.001 c -2.164,1.353 -8.362,2.135 -12.349,2.135 -12.867,0 -28.787,-5.883 -51.105,-15.451 8.575,-0.635 16.438,-0.957 23.489,-0.957 12.906,0 16.729,-0.056 29.349,3.163 12.62,3.219 12.779,9.757 10.616,11.11 z M 470.538,103.87 396.13,29.463 C 379.925,13.258 347.917,0 325,0 H 75 C 52.083,0 33.333,18.75 33.333,41.667 v 450 c 0,22.916 18.75,41.666 41.667,41.666 h 383.333 c 22.916,0 41.666,-18.75 41.666,-41.666 V 175 C 500,152.083 486.742,120.074 470.538,103.87 Z m -23.57,23.57 c 1.631,1.631 3.255,3.633 4.833,5.893 H 366.667 V 48.2 c 2.261,1.578 4.263,3.203 5.893,4.833 z m 19.699,364.227 c 0,4.517 -3.816,8.333 -8.333,8.333 H 75 c -4.517,0 -8.333,-3.816 -8.333,-8.333 v -450 c 0,-4.517 3.817,-8.333 8.333,-8.333 h 250 c 2.517,0 5.341,0.318 8.334,0.887 V 166.667 H 465.78 c 0.569,2.993 0.887,5.816 0.887,8.333 z"
   id="path2" />
</g>















</svg>
